<?xml version="1.0" encoding="UTF-8" standalone="no"?>
<!-- Created with Inkscape (http://www.inkscape.org/) -->

<svg
   xmlns:dc="http://purl.org/dc/elements/1.1/"
   xmlns:cc="http://creativecommons.org/ns#"
   xmlns:rdf="http://www.w3.org/1999/02/22-rdf-syntax-ns#"
   xmlns:svg="http://www.w3.org/2000/svg"
   xmlns="http://www.w3.org/2000/svg"
   xmlns:sodipodi="http://sodipodi.sourceforge.net/DTD/sodipodi-0.dtd"
   xmlns:inkscape="http://www.inkscape.org/namespaces/inkscape"
   width="11in"
   height="8.5in"
   viewBox="0 0 279.4 215.9"
   version="1.1"
   id="svg8"
   sodipodi:docname="favicon.svg"
   inkscape:version="0.92.3 (2405546, 2018-03-11)">
  <defs
     id="defs2" />
  <sodipodi:namedview
     id="base"
     pagecolor="#ffffff"
     bordercolor="#666666"
     borderopacity="1.0"
     inkscape:pageopacity="0.0"
     inkscape:pageshadow="2"
     inkscape:zoom="0.35"
     inkscape:cx="-1151.4286"
     inkscape:cy="694.28571"
     inkscape:document-units="mm"
     inkscape:current-layer="layer1"
     showgrid="false"
     units="in"
     inkscape:window-width="3840"
     inkscape:window-height="2104"
     inkscape:window-x="0"
     inkscape:window-y="0"
     inkscape:window-maximized="1" />
  <metadata
     id="metadata5">
    <rdf:RDF>
      <cc:Work
         rdf:about="">
        <dc:format>image/svg+xml</dc:format>
        <dc:type
           rdf:resource="http://purl.org/dc/dcmitype/StillImage" />
        <dc:title />
      </cc:Work>
    </rdf:RDF>
  </metadata>
  <g
     inkscape:label="Layer 1"
     inkscape:groupmode="layer"
     id="layer1"
     transform="translate(0,-81.1)">
    <path
       style="fill:#000000;stroke-width:0.30266553"
       d="m 31.882624,290.21219 c -3.529548,-0.58142 -6.249675,-1.54899 -8.769565,-3.11938 -1.039732,-0.64797 -2.491589,-1.39916 -3.226349,-1.66933 -0.73476,-0.27017 -2.026088,-0.91762 -2.86962,-1.43881 -0.84353,-0.52117 -1.963715,-1.11641 -2.489301,-1.32274 -1.153577,-0.45288 -4.341066,-3.93829 -5.1985965,-5.68448 -0.3398892,-0.69211 -1.0797106,-2.02412 -1.6440533,-2.96002 -1.088853,-1.80572 -2.7859574,-6.62149 -3.0967421,-8.78743 -0.1024691,-0.71414 -0.5969587,-3.19284 -1.0988625,-5.50824 -0.512975,-2.36647 -1.0345587,-5.83197 -1.1911804,-7.91446 -0.5938084,-7.89542 -0.1717263,-17.69538 0.991903,-23.03005 0.3886047,-1.78156 1.0504626,-4.83052 1.4707938,-6.77546 1.1431498,-5.28954 1.7533,-7.69334 2.5321519,-9.9759 0.3868715,-1.13381 0.9015628,-3.02822 1.1437535,-4.20983 0.5953481,-2.90455 3.6261436,-11.01422 5.0388206,-13.48264 0.281383,-0.49168 0.514917,-1.02212 0.518962,-1.17876 0.0097,-0.37345 1.675145,-3.11582 5.008581,-8.24695 3.797132,-5.8449 9.599711,-13.61451 11.923898,-15.96602 1.080383,-1.09308 2.576339,-2.69237 3.324345,-3.55397 0.748007,-0.86161 2.094419,-2.13986 2.992027,-2.8406 0.89761,-0.70072 1.985842,-1.63692 2.418298,-2.08045 0.432456,-0.44355 1.534065,-1.23305 2.448022,-1.75447 0.913955,-0.52141 2.702145,-1.96544 3.973759,-3.20896 1.271614,-1.24349 3.049441,-2.77285 3.950729,-3.39856 0.901281,-0.62571 1.997062,-1.60079 2.43506,-2.16684 0.438,-0.56607 1.291801,-1.19411 1.897329,-1.39567 0.605529,-0.20157 1.913227,-0.95352 2.906007,-1.67101 3.029702,-2.18963 9.544578,-5.89472 12.238528,-6.96021 5.090936,-2.01353 12.634104,-3.31536 17.508705,-3.02172 11.507493,0.69318 16.828673,1.71347 22.848213,4.38094 1.6456,0.72924 3.42042,1.47605 3.94404,1.65959 1.70977,0.59936 5.79675,2.66012 8.2743,4.17213 1.33445,0.81439 2.59839,1.48071 2.80876,1.48071 0.21037,0 1.75018,0.89792 3.4218,1.99536 1.67161,1.09745 4.1151,2.37828 5.42998,2.84632 1.31488,0.46803 3.0897,1.36969 3.94404,2.00369 0.85434,0.63399 2.20603,1.41546 3.00376,1.73657 0.79774,0.3211 2.26655,1.2655 3.26403,2.09864 0.99748,0.83315 2.97641,2.19374 4.39763,3.02356 1.42121,0.82981 3.17361,1.88965 3.8942,2.35521 1.45617,0.94075 2.00357,0.90985 5.00313,-0.28239 1.28723,-0.51164 2.25169,-0.64547 4.05237,-0.56233 1.47954,0.0683 2.40045,-0.0227 2.46304,-0.24362 0.055,-0.19398 -1.21778,-0.87597 -2.82833,-1.51553 -2.84795,-1.1309 -3.05525,-1.16356 -7.55238,-1.18977 -3.82203,-0.0222 -4.78021,-0.12784 -5.5246,-0.60863 -0.72949,-0.47117 -0.8845,-0.75396 -0.81601,-1.48858 0.0845,-0.90534 0.0886,-0.9069 2.39659,-0.9069 1.2716,0 2.55682,-0.17326 2.85602,-0.38502 0.66094,-0.46778 5.94698,-0.29451 7.57505,0.24829 0.60861,0.20292 2.26703,1.11393 3.68536,2.02448 1.66896,1.07145 2.67204,1.54012 2.84308,1.32834 0.15055,-0.18641 0.28808,-3.37163 0.31957,-7.40195 0.0615,-7.86697 0.16324,-7.40275 -1.91094,-8.71853 -1.26925,-0.80515 -3.19408,-3.66899 -4.60449,-6.85074 -2.02677,-4.57225 -2.9802,-12.41197 -2.20524,-18.13323 1.162,-8.5785 4.32353,-22.564716 5.79393,-25.631412 0.40909,-0.853198 1.45004,-2.332146 2.31327,-3.286554 1.48649,-1.643523 1.63032,-1.724926 2.72002,-1.539359 0.63279,0.107763 2.0487,0.742796 3.14645,1.411193 1.65402,1.007095 2.45776,1.822438 4.69204,4.759799 1.48288,1.949491 2.69614,3.685779 2.69614,3.858412 0,0.172632 0.45901,0.956321 1.02001,1.741531 0.56101,0.78521 1.47145,2.3375 2.02321,3.44954 1.01848,2.05272 4.57285,10.98454 4.57285,11.49121 0,0.15221 0.36633,0.90289 0.81408,1.66819 0.44773,0.76531 1.15155,2.31483 1.56401,3.4434 l 0.74993,2.05192 1.46096,-0.22272 c 0.80352,-0.12251 1.93538,-0.42999 2.51523,-0.68329 0.57985,-0.25332 2.61525,-0.86105 4.5231,-1.3505 3.13894,-0.8053 4.32245,-0.91656 12.4449,-1.16988 4.93685,-0.15398 9.39659,-0.4087 9.91055,-0.56606 0.70578,-0.21609 0.98483,-0.5193 1.14028,-1.23909 0.11323,-0.52414 0.40174,-1.22101 0.6412,-1.5486 0.23945,-0.32758 0.5103,-1.18273 0.60193,-1.90032 0.23304,-1.82504 2.09366,-7.373 2.92561,-8.72352 0.38091,-0.61835 0.69257,-1.22192 0.69257,-1.34127 0,-0.11931 0.73441,-1.7727 1.63202,-3.67413 0.89761,-1.901434 1.63202,-3.564073 1.63202,-3.694755 0,-0.558882 3.90035,-9.875669 4.4395,-10.604682 0.74546,-1.007922 2.08295,-1.724719 3.21823,-1.724719 0.722,0 1.1544,0.36837 2.47073,2.104909 0.87754,1.157698 1.84834,2.711121 2.15729,3.452049 0.30896,0.740927 0.73032,1.585352 0.93633,1.876497 0.54581,0.771285 2.24302,5.186558 2.96826,7.721881 1.15005,4.02039 2.04899,8.53236 2.55864,12.84215 0.31765,2.68613 -0.30598,12.53807 -0.90296,14.26516 -0.25536,0.73878 -0.39805,1.67002 -0.3171,2.06943 0.081,0.3994 0.88947,1.52239 1.79671,2.49552 2.21023,2.3708 4.56262,6.00899 5.83725,9.02787 0.57474,1.36124 1.21615,2.55631 1.42535,2.65569 0.21404,0.10172 0.87696,-0.40413 1.51617,-1.15688 2.23213,-2.6286 4.88062,-5.18676 6.26093,-6.04737 0.77163,-0.4811 2.30044,-1.54659 3.39736,-2.36773 2.20398,-1.64994 5.62908,-3.23111 6.37,-2.94068 0.26193,0.10268 0.60136,0.47608 0.75423,0.82976 0.41208,0.95337 -0.37275,1.74189 -2.96641,2.98033 -1.21451,0.57992 -2.8508,1.56221 -3.63621,2.18289 -0.78538,0.62066 -2.0476,1.51621 -2.80491,1.99012 -0.75731,0.47391 -1.98132,1.57046 -2.72002,2.4368 -0.73871,0.86633 -1.77151,1.84728 -2.2951,2.17988 -0.52361,0.33259 -1.52257,1.26485 -2.2199,2.07167 l -1.26789,1.46695 0.14787,2.3575 c 0.0814,1.29662 0.18458,2.41037 0.22943,2.47499 0.0449,0.0646 0.89997,-0.61737 1.90021,-1.51553 5.38143,-4.83226 7.40494,-6.24934 10.97603,-7.68664 2.51365,-1.01169 3.22274,-1.1801 3.74003,-0.88826 0.76938,0.43403 0.85355,1.71796 0.16234,2.47634 -0.46499,0.51015 -2.75215,1.59243 -3.40953,1.61337 -0.18179,0.006 -0.94251,0.39465 -1.69052,0.86413 -0.74801,0.46947 -1.67078,0.97542 -2.05057,1.12431 -1.01297,0.39711 -7.60837,5.85365 -8.54042,7.06569 l -0.7989,1.0389 0.6629,-0.012 c 0.36459,-0.007 1.64211,-0.2375 2.83892,-0.51343 2.34983,-0.54174 12.91637,-1.0652 14.09682,-0.69836 0.39623,0.12313 0.92484,0.61016 1.1747,1.0823 0.43175,0.81589 0.42628,0.8931 -0.11059,1.55783 -0.64123,0.79395 -1.55583,0.88184 -11.21689,1.07787 -6.38396,0.12955 -8.14833,0.55998 -8.80768,2.14871 -0.20858,0.50258 -0.84834,2.73242 -1.42166,4.95521 -0.83641,3.2428 -1.36651,4.62885 -2.6826,7.01414 -0.90208,1.63501 -2.1298,4.00934 -2.7282,5.2763 -0.5984,1.26695 -1.4717,2.69383 -1.94063,3.17084 -0.46894,0.47699 -1.32196,1.76477 -1.89559,2.86171 -0.57362,1.09693 -1.41394,2.25625 -1.8674,2.57625 -0.45343,0.32 -1.39587,1.30879 -2.09428,2.19731 -0.6984,0.8885 -1.73881,1.91216 -2.31202,2.27481 -0.5732,0.36262 -1.47059,1.14213 -1.99419,1.73225 -1.62965,1.83667 -4.81599,4.29226 -5.89467,4.54281 -0.56697,0.1317 -1.73971,0.89922 -2.60609,1.70562 -1.14379,1.06458 -1.92754,1.52317 -2.86133,1.67421 -0.70731,0.1144 -1.9511,0.46418 -2.76397,0.77728 l -1.47796,0.56928 -0.0735,4.56897 c -0.0404,2.51294 -0.2101,5.24089 -0.37711,6.06213 -0.16698,0.82125 -0.47054,2.55405 -0.67454,3.85067 -0.20401,1.29662 -0.51498,2.8556 -0.69108,3.4644 -0.29009,1.00304 -0.24752,1.24003 0.45359,2.52589 0.42555,0.78043 1.04268,1.7431 1.37141,2.13924 0.84557,1.01895 2.37861,4.92123 3.02469,7.69938 0.30157,1.29662 0.69651,4.25191 0.8777,6.56731 0.31338,4.0048 0.29991,4.34104 -0.27681,6.90411 -0.33345,1.48184 -0.6963,3.15866 -0.80633,3.72623 -0.24034,1.23972 -4.821,6.86576 -6.75233,8.29336 -0.70394,0.52034 -1.5903,1.25469 -1.96972,1.63188 -0.67104,0.66717 -5.73904,2.36672 -9.04391,3.03287 -1.50988,0.30434 -2.12506,0.24013 -6.58641,-0.68739 -1.95189,-0.40581 -3.16369,-0.98671 -3.95892,-1.8978 -0.90294,-1.03448 -1.39352,-1.00398 -3.08127,0.19164 -1.74468,1.23593 -4.79154,2.5949 -6.5054,2.90155 -1.65018,0.29526 -2.16846,0.87796 -1.81232,2.03774 0.66616,2.16941 0.10303,5.86331 -1.4033,9.20498 -0.98105,2.17642 -1.80092,3.14298 -3.50298,4.12968 -1.08463,0.62878 -1.67306,0.70371 -5.16803,0.6581 -7.06391,-0.0923 -13.00627,-1.18155 -17.40816,-3.19126 -3.65019,-1.6665 -5.63864,-2.73677 -6.18915,-3.33128 -0.93346,-1.00807 -1.69125,-1.27308 -3.65307,-1.27746 -2.61547,-0.006 -10.58069,-0.85129 -12.77323,-1.35579 -2.75135,-0.63306 -10.23134,-3.62727 -12.60886,-5.04727 -3.4272,-2.04692 -5.32712,-3.02249 -5.88634,-3.02249 -0.6967,0 -2.2799,1.28693 -3.78279,3.07491 -2.41901,2.87789 -7.64758,7.06052 -12.51706,10.01314 -1.261718,0.76504 -2.906034,1.79892 -3.654047,2.29751 -1.471575,0.9809 -5.841846,2.48949 -7.644317,2.63878 -0.770583,0.0639 -1.544859,0.47373 -2.500336,1.32367 -2.074381,1.84524 -4.89821,3.43229 -7.440614,4.1818 -15.799169,7.91562 -31.418426,7.55075 -47.072208,4.93991 z m 36.23324,-4.52552 c 4.229966,-1.49495 7.315699,-2.81282 8.204528,-3.50403 0.349554,-0.27183 1.079774,-0.59046 1.622711,-0.70806 1.573357,-0.34079 11.100296,-6.46064 12.340958,-7.92748 0.598409,-0.70749 1.562865,-1.47368 2.143244,-1.70262 1.398226,-0.55157 5.128205,-4.07459 8.336965,-7.87437 1.42568,-1.68829 3.8431,-4.41515 5.37205,-6.0597 1.52895,-1.64456 2.77991,-3.10912 2.77991,-3.25459 0,-0.41779 7.22558,-9.30923 9.92863,-12.21767 1.34612,-1.4484 3.12522,-3.4186 3.95358,-4.37821 2.32036,-2.68805 7.68994,-7.75227 11.34986,-10.70445 0.93713,-0.7559 1.84248,-1.70139 2.0119,-2.10108 0.16943,-0.3997 0.67083,-1.24362 1.11423,-1.87538 0.71942,-1.02504 0.7936,-1.33644 0.68931,-2.89354 -0.20659,-3.08453 -2.12164,-5.46611 -4.65574,-5.78995 -1.63863,-0.20939 -3.90961,0.49581 -7.45985,2.31648 -2.12204,1.08827 -8.34948,6.24103 -11.01971,9.11803 -2.30017,2.47829 -10.24533,12.40947 -12.84828,16.05993 -1.19681,1.67845 -2.549633,3.34828 -3.006282,3.71078 -0.456641,0.36248 -1.204407,1.15775 -1.661692,1.76726 -0.783889,1.04483 -3.324798,3.93291 -6.558826,7.45495 -0.7891,0.85939 -1.890705,1.8686 -2.448025,2.2427 -1.000982,0.67192 -2.605805,1.999 -4.924055,4.07184 -2.49749,2.23311 -8.719568,5.38433 -12.26943,6.21392 -1.124186,0.26272 -2.59478,0.63721 -3.26799,0.83219 -0.673202,0.19498 -2.264416,0.50947 -3.536031,0.69886 -1.271614,0.18941 -3.474833,0.56924 -4.896043,0.8441 -4.178052,0.80802 -9.941636,0.93938 -14.144122,0.32238 -2.019621,-0.29652 -5.671438,-0.75596 -8.115157,-1.02098 -5.023778,-0.54481 -6.787594,-1.07002 -9.22887,-2.74802 -1.757836,-1.20826 -2.286369,-1.91433 -2.800842,-3.74164 -0.646286,-2.29549 0.813668,-6.9896 2.173898,-6.9896 1.101273,0 1.264335,0.86358 0.560224,2.96698 l -0.630809,1.88442 0.718611,1.34451 c 0.39524,0.7395 1.241559,1.71697 1.880715,2.17219 1.389193,0.98939 5.275345,2.24064 6.95903,2.24064 0.662924,0 2.506234,0.26249 4.096253,0.58333 4.390155,0.88582 14.291335,0.77643 19.891082,-0.21978 2.318821,-0.41253 5.152504,-1.11404 6.297083,-1.55891 1.144572,-0.44488 2.967804,-0.97923 4.051626,-1.18744 2.287616,-0.43948 5.152041,-1.69037 6.515439,-2.84529 0.523606,-0.44353 1.46081,-1.02827 2.082677,-1.2994 1.317352,-0.57438 6.56675,-4.40774 8.094501,-5.91102 0.577347,-0.56809 1.153259,-1.03291 1.279807,-1.03291 0.361012,0 4.852724,-5.09382 7.81863,-8.86671 2.888184,-3.67403 4.773928,-6.22919 7.054438,-9.55867 l 1.43243,-2.0913 -0.38648,-1.61334 c -0.21258,-0.88734 -0.53233,-2.44687 -0.71055,-3.46566 -0.17825,-1.01878 -0.60514,-3.14051 -0.94866,-4.71499 -0.34353,-1.57447 -0.89178,-4.37821 -1.21836,-6.23052 -0.87784,-4.97918 -1.0724,-5.78445 -1.73087,-7.16414 -0.631273,-1.32269 -1.813542,-5.57168 -1.819735,-6.53999 -0.0018,-0.31323 0.119852,-0.66401 0.270799,-0.77951 0.579928,-0.44379 1.365596,0.27419 2.140986,1.95652 1.40479,3.04795 2.75533,7.50936 3.6721,12.13046 1.6874,8.5057 2.34455,12.00878 2.34455,12.49833 0,0.83538 1.04303,0.62257 1.78101,-0.36336 0.36686,-0.49014 0.66701,-1.01567 0.66701,-1.16786 0,-0.15217 0.70381,-0.9203 1.56401,-1.70694 0.86021,-0.78665 2.08505,-2.00805 2.72187,-2.71424 3.01053,-3.33845 11.52856,-9.07924 15.38177,-10.36667 1.61008,-0.53796 2.68823,-0.69893 3.88496,-0.58002 2.20615,0.2192 4.8032,1.67805 5.78446,3.24933 2.02025,3.23499 2.55288,7.58138 1.22605,10.00492 -1.74642,3.18991 -4.54849,6.23908 -7.33339,7.98008 -0.76256,0.47672 -2.64059,2.05048 -4.1734,3.49723 -1.5328,1.44676 -3.16411,2.97422 -3.62514,3.39438 -0.46103,0.42016 -1.67209,1.85991 -2.69125,3.19946 -3.50979,4.61319 -4.44792,5.71289 -5.81478,6.81619 -1.31163,1.05871 -3.39372,3.59548 -3.38496,4.12416 0.0104,0.62893 0.57574,1.1509 2.85542,2.63643 1.34445,0.8761 3.24007,2.23276 4.21247,3.01478 0.97242,0.78204 2.25762,1.60602 2.85603,1.83107 0.5984,0.22507 2.31202,0.98733 3.80803,1.69397 2.94992,1.39333 6.65081,2.57027 11.56011,3.67624 3.27836,0.73856 4.35976,0.81527 6.06375,0.43015 l 1.03173,-0.23318 -0.776,-1.34715 c -0.42678,-0.74091 -1.17361,-2.4393 -1.65959,-3.77419 -0.71548,-1.96513 -0.82703,-2.55804 -0.58619,-3.11526 0.57993,-1.34169 1.45572,-0.85202 3.23223,1.80715 1.83498,2.74676 3.62168,4.60555 7.9262,8.24609 2.90243,2.45471 4.69082,3.36407 9.02056,4.58683 0.94794,0.26772 2.63684,0.78619 3.75311,1.15218 1.11625,0.36597 3.13587,0.75833 4.48803,0.87192 2.26577,0.19034 2.66104,0.12397 5.0425,-0.84658 3.12525,-1.2737 3.38694,-1.47472 5.04138,-3.87247 l 1.30454,-1.89066 -0.33557,-2.76125 c -0.70214,-5.7775 -1.69713,-7.97081 -6.27691,-13.83648 -1.89673,-2.4293 -3.53024,-4.69308 -3.63007,-5.03066 -0.27246,-0.92155 0.27921,-1.91211 1.0649,-1.91211 0.49795,0 1.43413,0.89723 3.42616,3.28364 3.11003,3.72576 5.3529,7.16094 7.44797,11.40723 0.27381,0.55493 0.40556,0.54491 2.31202,-0.1757 3.22469,-1.21889 9.11369,-4.96563 11.67778,-7.42972 0.5236,-0.50318 1.60783,-1.35117 2.40942,-1.8844 0.80156,-0.53324 2.2494,-1.92162 3.21741,-3.08529 0.968,-1.16367 1.80726,-2.11576 1.86503,-2.11576 0.0578,0 0.23648,0.30403 0.3971,0.67565 0.23393,0.54119 0.15129,0.97306 -0.41523,2.17001 -0.71643,1.51365 -5.03559,6.52131 -6.70171,7.77003 -0.49943,0.37428 -0.90802,0.82895 -0.90802,1.01035 0,0.18141 0.73108,0.7819 1.62461,1.33445 1.41428,0.87454 1.98293,1.02105 4.39175,1.13145 3.30113,0.1513 5.29687,-0.37398 9.07977,-2.3898 6.4031,-3.4121 8.45623,-6.63619 9.66688,-15.18029 0.39881,-2.81464 0.39218,-3.14639 -0.12455,-6.23051 -0.68538,-4.09067 -0.97828,-5.16036 -2.04463,-7.46741 -0.47093,-1.01877 -1.03474,-2.29483 -1.25294,-2.83567 -0.57202,-1.41786 -0.85107,-1.38007 -1.67107,0.22625 -1.09244,2.14001 -3.84614,5.57063 -4.67931,5.82953 -0.75544,0.23477 -1.7984,-0.54806 -1.7984,-1.34986 0,-0.21057 0.5604,-1.05852 1.24533,-1.88432 0.68493,-0.8258 1.7133,-2.48745 2.28523,-3.69256 0.57197,-1.20511 1.2915,-2.473 1.599,-2.81754 0.55453,-0.62137 1.49318,-3.38543 2.35921,-6.94724 0.67147,-2.76152 1.01294,-10.05889 0.51551,-11.01649 -0.53607,-1.03201 -1.81551,-1.34901 -6.30019,-1.56095 -4.96929,-0.23485 -9.56991,-1.23106 -14.35219,-3.10783 -2.09443,-0.82194 -4.15256,-1.49361 -4.57363,-1.4926 -0.70698,0.002 -1.50177,-0.33463 -4.81047,-2.03544 -1.52383,-0.78334 -4.20999,-2.01996 -6.52805,-3.00533 -0.97241,-0.41336 -2.31882,-1.15025 -2.99203,-1.63751 -0.6732,-0.48729 -1.71361,-1.16303 -2.31202,-1.50169 -1.23516,-0.69899 -5.45642,-5.96274 -6.72355,-8.384 -1.00643,-1.92312 -2.16968,-2.95583 -4.70055,-4.17306 -1.04721,-0.50369 -2.0203,-1.04474 -2.16242,-1.20237 -0.14212,-0.15764 -0.7723,-0.28661 -1.40041,-0.28661 -2.11003,0 -5.66891,2.84346 -9.53197,7.61586 -1.25102,1.54547 -2.58029,3.05799 -2.95397,3.36113 -0.62914,0.51042 -0.72968,0.51037 -1.35938,-3.4e-4 -0.83437,-0.67692 -0.86318,-1.50412 -0.0945,-2.71407 0.8774,-1.38111 5.95943,-6.89868 6.89455,-7.48544 1.48176,-0.92975 3.67204,-2.90271 3.67204,-3.3077 0,-0.43212 -1.04986,-1.04118 -3.81704,-2.21441 l -1.77705,-0.75341 -2.16698,0.93087 c -4.12565,1.77224 -5.29504,1.74415 -5.29504,-0.12718 0,-0.78937 0.22431,-1.12926 1.22401,-1.85465 0.67319,-0.4885 1.22401,-1.01645 1.22401,-1.17323 0,-0.38098 -3.93515,-2.89833 -6.05658,-3.87447 -0.93253,-0.42908 -3.21606,-1.48096 -5.07454,-2.33753 -1.85847,-0.85674 -3.54566,-1.55755 -3.74932,-1.55755 -0.20366,0 -1.19232,-0.52593 -2.19702,-1.16873 -1.00469,-0.64279 -3.23432,-1.78103 -4.95474,-2.52946 -1.72041,-0.74839 -4.16295,-1.97965 -5.42785,-2.73611 -1.26489,-0.75645 -3.90713,-2.03357 -5.87162,-2.83802 -1.96451,-0.80444 -3.98962,-1.75762 -4.50025,-2.11817 -0.98484,-0.69537 -7.52969,-2.79359 -10.720524,-3.43689 -1.047205,-0.21114 -2.39361,-0.58973 -2.992019,-0.8413 -1.559182,-0.65552 -6.434292,-1.17258 -11.04555,-1.17152 -3.484326,6.8e-4 -4.555865,0.14849 -8.704078,1.19947 -7.823353,1.98216 -7.848651,1.99339 -16.562698,7.3624 -3.105117,1.91316 -9.539598,6.49137 -12.003834,8.54087 -1.496747,1.24484 -3.442843,2.79378 -4.324664,3.44209 -6.281808,4.61836 -10.292247,8.88874 -17.508412,18.6432 -4.119193,5.56812 -6.785731,10.02469 -8.253527,13.79406 -0.374039,0.96055 -1.521997,3.2783 -2.551021,5.15052 -1.029023,1.87225 -1.870952,3.58018 -1.870952,3.79542 0,0.21523 -0.614777,1.92258 -1.366167,3.79409 -0.751394,1.87151 -1.474842,3.95242 -1.607663,4.62422 -0.704801,3.5649 -1.9883372,9.47288 -2.3140791,10.65146 -0.4514807,1.63352 -1.2730337,7.72339 -2.1126812,15.66052 -0.8645704,8.17275 -0.7568929,12.78513 0.4777181,20.46307 1.2300766,7.64973 2.2201167,10.16165 5.9946502,15.2096 2.408182,3.22063 4.214191,4.70006 8.136285,6.66499 1.944818,0.97434 3.668818,1.7737 3.831111,1.77637 0.162296,0.002 1.080305,0.33235 2.040018,0.73261 0.959718,0.40028 2.295745,0.83409 2.968951,0.96404 0.673205,0.12996 2.325621,0.6221 3.672032,1.09366 11.157642,3.49768 23.630101,3.07555 34.680308,-0.73231 z m 31.478861,-14.03139 c 1.402665,-0.5444 3.018125,-1.68022 6.057465,-4.25895 3.82367,-3.24419 5.03801,-4.41249 5.98007,-5.75338 l 0.89807,-1.27825 -0.76993,-0.99505 c -0.42347,-0.54726 -0.96635,-0.99504 -1.20642,-0.99504 -0.24006,0 -0.98217,0.69859 -1.64912,1.55244 -1.12729,1.44315 -8.40988,9.50468 -10.58661,11.71895 -0.529167,0.53828 -0.717324,0.86107 -0.418115,0.71727 0.299192,-0.14377 1.061764,-0.46238 1.69459,-0.70799 z M 222.88524,198.00579 c 1.122,-0.36825 2.4691,-0.93879 2.99355,-1.26785 0.52445,-0.32908 1.4449,-0.76214 2.04546,-0.96237 0.60055,-0.20022 1.76268,-0.87453 2.5825,-1.49844 0.81981,-0.62393 3.36572,-2.54334 5.65757,-4.26538 5.75287,-4.32257 7.88738,-6.79147 11.24039,-13.00124 1.44281,-2.67208 3.50194,-7.05384 4.57589,-9.73723 1.68922,-4.22067 2.00436,-5.29943 2.3359,-7.99596 0.78909,-6.41755 0.38257,-11.18744 -1.31326,-15.40972 -1.73328,-4.31555 -3.52705,-7.51648 -5.02567,-8.96815 -0.74028,-0.71709 -2.49666,-2.45601 -3.90307,-3.86429 -1.40639,-1.40826 -2.9812,-2.73782 -3.49956,-2.95457 -0.51835,-0.21676 -1.95657,-1.23824 -3.19603,-2.26994 -2.34901,-1.95531 -2.7837,-2.87006 -1.82968,-3.85041 0.35244,-0.36216 0.61609,-0.31262 1.56402,0.29381 0.62707,0.40116 1.35204,0.91703 1.61101,1.1464 1.29688,1.14848 1.75877,-1.72141 1.81559,-11.28074 0.0282,-4.74208 -0.67946,-9.94176 -1.62888,-11.96925 -0.66856,-1.427637 -0.66143,-2.306092 0.0223,-2.759228 0.92754,-0.614634 1.50477,0.144799 2.72191,3.580988 1.08882,3.07404 1.16616,3.50206 1.32522,7.33524 0.0929,2.2389 0.0782,6.95023 -0.0327,10.46964 l -0.20161,6.39892 0.74561,0.76372 c 1.87129,1.91678 2.52927,-0.0646 2.6022,-7.83621 0.0791,-8.43215 -1.08636,-14.7795 -4.06536,-22.140273 -1.65312,-4.084959 -3.55916,-7.328444 -4.30642,-7.328444 -0.50767,0 -1.37849,1.339627 -2.18921,3.367854 -0.40725,1.018774 -1.01232,2.306978 -1.34463,2.862673 -0.33227,0.555697 -0.93593,1.914551 -1.34145,3.019676 -0.4055,1.105123 -1.32392,3.226874 -2.04094,4.714994 -2.21606,4.59936 -3.51833,8.12638 -5.07457,13.74382 -0.92676,3.34531 -0.79244,3.60483 1.87922,3.63103 2.54023,0.0249 3.7533,0.54841 4.09904,1.76894 0.41876,1.47826 -0.0564,1.63458 -4.06433,1.33714 -4.48802,-0.33306 -13.36193,-0.23208 -20.68242,0.23536 -4.96891,0.31729 -6.20114,0.51567 -9.7738,1.57346 -2.24846,0.66572 -4.7001,1.56776 -5.4481,2.00454 -2.53773,1.48184 -2.5045,1.50517 -4.36621,-3.06542 -0.90539,-2.22279 -2.23825,-5.32963 -2.9619,-6.90411 -0.7236,-1.57447 -1.80218,-4.12186 -2.39679,-5.66086 -0.59463,-1.53903 -1.35877,-3.20677 -1.69812,-3.70611 -0.33935,-0.49934 -1.05159,-1.80115 -1.58275,-2.89291 -0.97856,-2.01137 -3.20688,-5.245309 -6.46221,-9.378567 -2.1477,-2.726935 -2.80981,-2.890433 -4.60043,-1.135999 -1.1522,1.128944 -3.02244,4.930269 -3.38578,6.881776 -0.0927,0.49815 -0.4052,1.89083 -0.69434,3.09483 -0.28914,1.20401 -0.7779,3.42311 -1.08616,4.93135 -1.4989,7.33366 -1.68032,8.7668 -1.8912,14.93899 -0.23733,6.94672 -0.0187,8.49984 1.58781,11.28231 0.42781,0.74092 0.96218,1.87758 1.18756,2.52589 0.22536,0.64831 1.01215,1.9744 1.74846,2.94687 1.56867,2.07187 2.57834,2.33402 3.56701,0.92616 0.32518,-0.46308 0.71445,-0.84197 0.86505,-0.84197 0.54066,0 1.40694,1.38968 1.22339,1.96257 -0.52959,1.65295 -0.95003,5.69345 -1.25434,12.05437 l -0.34028,7.11282 0.88358,4.84305 c 0.99892,5.47542 2.47324,10.69926 3.48913,12.36286 1.39217,2.27976 4.33308,5.72337 5.5204,6.46402 0.67321,0.41993 1.59122,1.09278 2.04002,1.49519 0.92029,0.82519 5.48575,3.22594 7.75207,4.07646 0.82281,0.30879 2.23042,0.90712 3.12803,1.32963 0.89761,0.42251 2.06041,0.87246 2.58403,0.99989 0.52359,0.12744 2.05361,0.66013 3.40002,1.18376 1.34642,0.52362 3.42723,1.21099 4.62404,1.52745 1.19681,0.31649 2.66562,0.71457 3.26403,0.88466 1.00755,0.28636 2.74105,0.5773 7.61606,1.27827 3.37409,0.48516 7.16967,0.32106 9.3841,-0.40574 z m -9.6691,-7.61665 c -2.5239,-0.55187 -4.54377,-3.88501 -4.58709,-7.56963 -0.0221,-1.86918 0.0354,-2.07637 0.70555,-2.54831 0.81753,-0.57571 2.03683,-0.25257 2.42544,0.64278 0.37147,0.85589 0.99844,2.79986 1.33142,4.12821 0.40569,1.6183 1.04289,2.03362 2.66407,1.73635 2.05482,-0.37678 3.23107,-1.02049 5.23327,-2.86397 2.35226,-2.16573 3.5217,-3.94007 2.95327,-4.48083 -0.21512,-0.20464 -1.09088,-1.02019 -1.94614,-1.81234 -1.55262,-1.43804 -2.3472,-2.87388 -2.8545,-5.15819 -0.31901,-1.43636 0.14764,-3.16766 0.93174,-3.45681 0.27501,-0.10148 2.21366,-0.20854 4.30808,-0.23801 3.33831,-0.047 4.03104,-0.15772 5.61606,-0.89771 2.0821,-0.97205 3.093,-0.79204 3.75848,0.66928 0.33992,0.74643 0.34678,1.18779 0.0467,3.00406 -0.53713,3.25113 -1.27526,4.98827 -2.93219,6.90046 -1.19456,1.37861 -1.47064,1.88592 -1.32837,2.44092 0.39902,1.55656 2.56274,0.96792 5.03938,-1.37099 1.74922,-1.65193 1.7857,-1.67052 2.5612,-1.30545 1.32379,0.62317 0.93798,1.74251 -1.40518,4.07691 -2.46125,2.452 -3.40249,3.00633 -5.10481,3.00633 -1.43158,0 -2.56887,-0.628 -3.3424,-1.84559 -0.67478,-1.06215 -1.22915,-1.07767 -1.77318,-0.0497 -0.81435,1.53891 -4.84675,5.01197 -6.97196,6.00489 -2.30814,1.0784 -3.71776,1.33955 -5.32886,0.98728 z m 14.29578,-13.17516 c 1.29891,-0.44681 4.44607,-4.35261 4.18528,-5.19413 -0.14491,-0.46752 -0.37007,-0.55132 -1.03065,-0.38359 -2.6078,0.66217 -4.58517,0.94907 -6.2173,0.90205 -1.58912,-0.0457 -1.83583,0.0271 -1.83466,0.54096 0.003,0.79561 0.96058,2.15239 2.41947,3.42383 1.36194,1.18693 1.21582,1.14502 2.47786,0.71088 z m -21.57113,-14.55046 c -1.68965,-3.23565 -2.6916,-3.96611 -5.51202,-4.0185 -1.96714,-0.0366 -3.49199,0.70935 -5.32357,2.60405 -0.60942,0.63043 -1.40307,1.23793 -1.76366,1.34999 -1.38701,0.43101 -1.933,-1.4008 -0.90151,-3.02444 0.83396,-1.31274 4.23614,-3.64473 6.09231,-4.17593 1.77735,-0.50865 2.62396,-0.402 5.3757,0.67722 3.26792,1.28167 5.412,4.6353 4.66206,7.2921 -0.16858,0.59732 -0.47691,0.90822 -0.97123,0.97944 -0.61326,0.0883 -0.8674,-0.16978 -1.65808,-1.68393 z m 29.11655,-5.0147 c -0.5223,-0.37666 -0.62658,-1.68962 -0.21063,-2.65195 0.33417,-0.77316 2.51442,-2.72379 4.40717,-3.94304 1.2672,-0.81629 1.75245,-0.93267 3.89554,-0.93424 2.68608,-0.002 3.72377,0.44457 4.73602,2.03794 0.70074,1.103 0.70408,1.30838 0.0349,2.13693 -0.52948,0.65557 -0.54367,0.65557 -2.08261,0 -2.58856,-1.10273 -5.04382,-0.71522 -7.08643,1.11841 -0.66425,0.59631 -1.58634,1.42518 -2.04907,1.84196 -0.95122,0.8567 -0.9903,0.86607 -1.64492,0.39399 z m -58.41252,-28.31504 -3.67203,-1.34151 -2.95044,0.37409 c -3.27661,0.41546 -3.80411,0.22764 -3.65938,-1.303 0.0554,-0.58533 0.30141,-0.94438 0.76177,-1.11164 3.61201,-1.31229 3.88809,-1.37005 5.64963,-1.18179 1.00673,0.10759 2.37276,0.43535 3.03557,0.72836 1.46308,0.64676 1.98761,0.27287 1.37065,-0.97697 -0.71482,-1.44808 -7.9468,-10.67151 -9.03329,-11.52072 -0.78643,-0.6147 -1.03493,-1.01525 -0.97161,-1.56614 0.27455,-2.38929 4.20687,0.37082 8.04794,5.6489 2.32055,3.18863 3.57834,4.35527 4.05682,3.76281 0.19674,-0.24357 -2.75016,-7.80257 -3.16584,-8.12067 -0.16173,-0.12374 -0.46341,-0.72689 -0.67041,-1.34031 -0.58526,-1.73437 -5.22035,-9.7882 -5.99484,-10.41653 -0.69598,-0.56463 -0.9549,-1.989823 -0.43393,-2.388487 0.66023,-0.505218 5.56367,5.238057 6.60955,7.741557 0.23085,0.55257 1.23753,2.59598 2.23711,4.54092 3.26488,6.35266 5.24889,12.18812 5.48104,16.12111 0.11146,1.88877 0.0523,2.25552 -0.4769,2.95292 -0.8348,1.10024 -1.82117,1.00465 -6.22141,-0.6029 z m -13.31756,41.46966 c 0.28536,-0.1891 1.16042,-0.49445 1.94461,-0.67859 1.99344,-0.46809 2.1341,-0.77229 1.02275,-2.21197 l -0.93789,-1.21494 -2.87659,0.16065 c -3.01629,0.16844 -4.22755,0.61188 -3.86176,1.41374 0.19952,0.43735 3.49792,2.80957 3.96819,2.85395 0.12205,0.012 0.45536,-0.13376 0.74069,-0.32284 z"
       id="path91"
       inkscape:connector-curvature="0"
       sodipodi:nodetypes="cssccssccsssscscssccccscsssssccssccccccccccccccsccsscccccscccsccscccccsscccccssscscccccccccccsccccccccccccccccccccccccccscccscccccccccsccccccscccccccscccccccscccssccccscccccccsssccsccscccscccssccscscccsscssscccscccsccccccscccssscsscscssscccccccccccccccccccscsccccsscccccscccscccccccccsccccccccccccccsscccccsccsscsccsccsccccccsscsscssccsscscsscccsccsscccccccscccccccsccccccccccccscscccccccsscscccccccccccccccscsccccccccscascccccccccccccccccccsccscccccccscccccccccsccccccccccccccccsccccccccccsccccccccccccccc" />
  </g>
</svg>
