<svg version="1" xmlns="http://www.w3.org/2000/svg" width="1320" height="1320" viewBox="0 0 990.000000 990.000000"><path d="M839.7 127.4c-7.3 2.1-9 5-19.7 31.6-6.9 17.4-11.2 27.3-17.4 40.3-2.5 5.4-4.6 10.3-4.6 11.1 0 .7-.3 1.6-.7 2-1 .9-4.3 11.4-5 15.6-1.1 7.3-5.9 18.5-8.4 19.7-2.5 1.2-12.4 2-35.9 2.8-15.6.6-30 1.4-32.7 1.9-1.1.3-3.6.7-5.4 1-1.9.3-8.1 1.9-13.9 3.6-19.8 6-23 6.5-23 3.9 0-1-2.5-6.9-7.6-17.5-1.9-4-3.4-7.4-3.4-7.8 0-.9-8.5-22.4-12.9-32.4-6.6-15.4-22.1-39-32.3-49.5-4.9-5.1-17.6-11.7-21.2-11-2.9.6-9.4 7.4-13.2 14-2.3 3.8-6.2 13.6-6.9 17.3-.2.9-1.7 7.2-3.4 14-1.7 6.9-3.3 14.1-3.6 16-.3 1.9-1 5.1-1.5 7-.5 1.9-1.2 4.8-1.4 6.5-.3 1.6-.8 4.1-1.1 5.5-3.8 18.7-4.9 28.6-4.9 43.5.1 13.3.7 25 1.4 25 .1 0 .4 1.6.7 3.5 2.1 15.1 14.2 38.5 22.9 44.5 2.2 1.5 4.6 4.1 5.2 5.7.9 2.5.9 14.9.1 49.1 0 2.6-3 1.7-11.5-3.5-8.9-5.3-14.5-7.4-21.4-7.8-3-.1-7.1-.3-9-.4-1.9-.1-4.8.2-6.5.6-1.6.5-6.6 1.1-11 1.5-4.4.3-8.3 1.1-8.7 1.7-1.4 2.1-.8 5.1 1.3 6.4 3.1 2 5.1 2.2 19.1 2.6 13.3.4 19.9 1.1 23.3 2.6 7.7 3.2 13.4 6 14 6.9.4.8-2 1.1-7.4 1.1-5.3 0-10 .7-14.3 2.1-11.9 3.9-13.4 3.7-23.4-2.2-4.9-2.9-9.1-5.6-9.4-6-.3-.3-1.6-1.2-3-1.9s-6.1-3.9-10.5-7.1c-4.4-3.1-10.7-7.2-14-8.9-3.3-1.8-7.2-4.1-8.7-5.1-1.4-1.1-3.1-1.9-3.7-1.9-.6 0-1.1-.5-1.1-1 0-.6-.4-1-1-1-2.4 0-31.6-15-33-16.9-.3-.4-3.2-2-6.5-3.5s-9.1-4.7-13-6.9c-6.9-4-25.9-13.7-27-13.7-.3 0-5.3-2-11.1-4.5-18.8-8-28.4-10.8-47.4-13.4-34.6-4.8-56.5-4.4-79.3 1.5-5 1.3-10.1 2.6-11.2 2.9-3.7.9-8 2.7-18 7.7-9.1 4.6-26.3 14.4-27.5 15.7-1.1 1.3-12.1 8.1-15.2 9.4-1.8.8-5.3 3.3-7.8 5.6s-6.1 5.4-8 6.9c-3.9 3-8.1 6.7-19 16.6-1.4 1.2-5.9 4.7-10 7.6-21.4 15.1-45.1 40.3-65.5 69.5-2.7 3.8-5.2 7.2-5.5 7.5-.8.7-17.2 25.7-20 30.5-1.3 2.2-2.7 4.2-3.1 4.5-2.4 1.8-17.7 37.6-22 51.5-.6 2.2-1.4 4.7-1.7 5.5-.3.8-.6 2.2-.8 3.1-.7 3.5-3.3 13-3.8 13.7-.7 1.1-7.4 27.2-8.1 31.4-.3 1.8-.8 4.1-1.1 5-.3.9-.7 2.5-.9 3.5-.2 1-1.5 7.2-3 13.8-3.3 15.6-4 20-5.2 33.5-.8 9.6-.7 52.5.1 60 .7 6.5.9 7.4 2 14 .3 1.9.8 4.6 1 6 .2 1.4.7 3.6 1 5 .3 1.4.8 3.6 1 5 .3 1.4.7 3.6 1 5 .3 1.3.8 4.2 1.1 6.3 2.9 19.1 16.1 46.2 28.7 58.8 5.6 5.5 8.8 7.4 44.8 25.4 6 3 12.6 5.3 17.5 6.1 1.1.2 3.1.6 4.5.9 1.4.3 4.3.8 6.5 1.1 2.2.3 5.1.8 6.5 1 5.5 1.1 13 1.9 27 3.2 15.8 1.3 50.1.6 61-1.2 1.4-.3 4.3-.8 6.5-1.1 11.1-1.9 12.9-2.3 24.3-5.6 10-2.9 12.1-3.6 18.9-6.5 1.7-.8 3.3-1.4 3.6-1.4.3 0 3.4-1.3 6.9-3 6.5-2.9 12.1-5.2 12.6-5 1.3.4 19.3-11.1 25-16 .7-.6 4-1.7 7.5-2.5 12.4-2.7 18.6-5.3 30.2-12.4 10-6.1 15.5-9.7 17-10.9.6-.5 2.4-1.7 4-2.8 7.2-4.5 17.8-13.5 28-23.7 6-6 12.3-11.6 13.8-12.4 3.2-1.6 4.8-1 19.3 7.2 12.5 7.2 39.7 18.4 48.2 20 1.5.3 3.8.7 5.1 1 1.3.2 4.9.7 8 1.1 3.1.3 6.5.8 7.5 1 2 .4 13.5 1.2 24.7 1.8 7 .4 9.6 1.4 14.2 5.2 3 2.5 25 13.4 27 13.4.7 0 1.7.4 2.2.9 1 .8 17.6 5.1 22.4 5.7 20.8 2.7 42.2 3.2 47.2 1.1 8.1-3.4 13-9.8 17.5-23.2 2.7-8.3 3.9-20.9 2.3-25.2-1.2-3.1 1.6-5.8 7.4-7.2 6.3-1.5 20.8-8.4 25.2-12.1 1.8-1.5 5.3-.7 8 1.7 3.4 3.2 9.6 5.5 19 7.3 12 2.3 14.6 2.3 24.2 0 18.5-4.5 27.1-8.9 37.4-19.3 6.8-6.7 10.9-11.5 10.9-12.7 0-.5.3-1 .8-1 .4 0 2.2-2.2 4-4.8 2.4-3.5 3.9-7.7 5.8-16.2 2.2-9.9 2.5-12.9 2-22-.9-16.9-2.6-28.1-5.3-36-.8-2.5-1.6-5-1.7-5.5-.1-.6-1.2-3.2-2.4-5.9s-2.2-5.1-2.2-5.3c0-.2-1.4-2.4-3.1-4.9-5-7.3-6.8-12.2-5.8-15.7.5-1.6 1.1-4.8 1.5-7.1.3-2.2.7-4.3.9-4.6.2-.3.6-3 1-6s.8-5.7 1-6c.6-.9 1.7-18 1.9-29l.2-10.5 5.5-2.2c3-1.2 6.9-2.4 8.7-2.6 3.4-.6 7.2-2.6 10.7-6 1.1-1 4-3 6.5-4.4 9.3-5.3 14.8-9.2 22-15.9 14.3-13 26.8-26.4 31.1-33.1 2.3-3.8 5.6-8.6 7.3-10.9 1.7-2.2 7.5-12.8 12.9-23.5 8-15.9 10.4-21.7 13.2-32.2 1.9-7.1 4.2-14.5 5.2-16.5 1.6-3.4 2.4-3.8 7.8-4.9 3.3-.7 12.5-1.5 20.5-1.8 31.4-1.2 34.7-1.4 37.5-2.1 1.7-.4 3.6-1.1 4.3-1.7 2-1.5 1.4-5.2-1.2-7.6-2.2-2.1-3.5-2.3-11.8-2.4-10.1 0-28.5 1-33.3 1.8-3.3.6-8.4 1.3-15.5 2.2l-4.5.5 5-5.1c2.8-2.9 8.2-7.8 12-10.9 3.9-3.1 7.2-6 7.5-6.3.9-1.1 14.4-9.4 18-11.1 16.3-7.6 16.8-7.8 17.4-10.4.4-1.6.1-3.5-.8-5-1.5-2.2-1.7-2.3-6.5-.8-6.9 2-15.7 6-21.6 9.7-6.2 3.9-6.3 4.1-19.7 15.6-6 5.1-11.2 9-11.6 8.6-.7-.7-1.3-5.7-1.4-12.4-.1-4.3 0-4.4 12.8-16.7 13.8-13.4 27.4-23.8 39.2-30 8.9-4.7 11.2-6.7 11.2-9.8 0-4-3.7-4.7-10.5-2-4.9 2-13.5 6.9-17 9.7-.5.4-4.6 3.4-9 6.6-4.4 3.2-12.4 10.4-17.8 16s-10.2 9.9-10.7 9.6c-.6-.4-2.9-4.5-5.1-9.3-4.2-8.7-13.6-23.9-17.2-27.7-1.1-1.1-3.7-4.4-5.9-7.3-4.2-5.4-4.4-6.7-2.3-15.2.7-2.9.9-4.7 2-18.5 1.3-15.3.9-32.6-1-42.5-.3-1.4-.8-4-1.1-5.9-.3-1.8-.8-4.3-1-5.5-.3-1.1-.7-3.2-1-4.6-.3-1.4-1-4.3-1.6-6.5-.5-2.2-1.2-4.9-1.4-5.9-.2-1.1-1.1-4.2-2.1-7-.9-2.8-1.8-5.3-1.8-5.6-.1-.3-.7-1.8-1.3-3.3-.7-1.6-1.2-3.3-1.2-3.8 0-1.3-11-23.9-12.7-25.9-.6-.8-2.7-3.5-4.5-5.9-4.7-6.2-6.4-7.1-11.1-5.7zm4.4 13.6c1 .6 1.9 1.7 1.9 2.5s.4 1.5.9 1.5c2.3 0 16.9 34.7 18.8 44.9.2 1.3.8 3.2 1.3 4.1.5 1 .7 1.9.5 2.2-.2.2 0 2 .5 3.9s1.2 5.4 1.6 7.9c.3 2.5.8 5.8 1 7.5 1 6.2 1.1 44.6.1 50.2-1.4 8.8-3.3 10.2-8 5.9-2.4-2.2-2.5-2.8-2.2-10.7.5-12.3.5-53.6.1-59.7-.7-7.9-3.2-16.6-7.6-25.6-2.6-5.3-4.3-6.5-6.5-4.6-2 1.7-1.9 4.9.4 10.7 1 2.6 2.3 7.8 3 11.4 2 11.8 3.3 38.9 1.8 38.9-.4 0-.3.8.2 1.9.6 1 .8 2 .6 2.3-.3.2-.7 4.7-1 9.9-.6 9.8-1.2 14.7-2.1 16.1-.9 1.4-3.9.9-6-1-3.8-3.4-7.2-4.6-8.9-3.2-.8.7-1.5 2.1-1.5 3.1 0 2.9 7.1 10 15.8 16 8.7 6 10.7 7.7 23.3 20.3 10.7 10.5 13.7 14.8 19.5 27.2 8 17.2 10.7 28.1 10.7 43.9 0 6.4-1 20.7-1.7 24.1-.2 1.2-.7 3.7-1 5.6-1.7 11-20.8 52.6-31.8 69.3-7.8 11.9-19.1 22.8-39.3 37.6-7.1 5.2-7.3 5.4-10.5 8-3.6 3-23.2 12.5-29.5 14.4-6 1.7-20.4 2.3-30.5 1.2-9.8-1-30.1-4.7-32.1-5.8-1-.5-2.2-.8-2.6-.7-.4.1-2.8-.5-5.3-1.2s-4.9-1.5-5.5-1.6c-.5-.2-6.6-2.3-13.5-4.7-11.8-4.2-17.4-6.4-26.2-10.1-2.1-.9-4-1.6-4.3-1.6-.3 0-5.1-2.4-10.7-5.2-10.6-5.3-22-12.9-27.3-18.3-5.4-5.3-13.5-15.5-15.6-19.7-4.6-9-10.1-30.1-14.4-55.3-.9-5.2-.5-19.8 1-41 .4-5.5.9-11.8 1-14 .6-8.1 1.7-15 2.5-15.9 1.4-1.4-1.5-8.6-3.6-8.6-.7 0-2.6 1.3-4.2 3-1.7 1.6-3.6 3-4.3 3-3 0-10-9.3-15.7-21.2-3.3-6.8-6.5-13.8-7-15.6-.7-2.1-1-11.3-.7-25.5.4-22.1.6-24.9 2.6-36 .5-3.2 1.2-7.3 1.5-9 1-6 1.2-7.2 1.4-7.2.1 0 .3-1.1.5-2.5s.7-3.9 1.1-5.5c.3-1.7.8-3.7.9-4.5.1-.8.5-2.2.8-3 .5-1.3 1.9-7.8 3.3-15.4.8-4.8 5.6-15.9 9.2-21.4 3.7-5.7 7.9-9.2 10.5-8.8 1.8.2 5.2 3 7.7 6.2.8 1.1 3.1 4 5.1 6.4 12 15 24.3 36.2 32.9 57 2.9 6.9 6.2 14.7 7.5 17.5 1.2 2.7 4.8 11.2 8.1 18.8 3.2 7.6 6.7 14.7 7.6 15.7 1.7 1.8 2 1.8 9.5-1.7 4.2-1.9 8.1-3.6 8.7-3.8.6-.1 1.8-.5 2.6-.8 6.9-2.7 21.9-6.3 30.8-7.2 14.5-1.6 59.7-2.3 92.6-1.6 5.9.2 7.7-1 6.7-4.6-1-3.6-6.1-6-14.4-6.6-3.7-.3-7.1-.8-7.6-1.2-1.2-.7-1.1-4 .1-8.1.5-1.7 1-4 1.3-5 .2-1 1.3-5.1 2.5-8.9 2.7-9.1 2.5-8.6 3.8-11.8.7-1.6 1.2-3.1 1.2-3.4 0-.9 17.9-42.1 23.1-53.2 2.7-5.7 4.9-10.6 4.9-11 0-.9 5-8.1 5.6-8.1.3 0 1.4.5 2.5 1zM330 333.4c6.9 1.1 14.9 3.1 21 5.3.8.3 2.5.7 3.7.9 2.8.3 3.2.4 17.6 4.9 6.4 2 16.8 6 23 8.9 6.1 2.9 13 6.1 15.2 7.1 2.2.9 8.1 3.8 13 6.3 5 2.5 16.4 8.3 25.5 12.9 9.1 4.6 17.9 9.2 19.5 10.2 1.7 1.1 3.6 2 4.4 2 .7.1 4.7 1.7 8.8 3.6 4.1 1.9 7.7 3.5 7.9 3.5.2 0 5.3 2.4 11.2 5.3 11.9 5.9 22.1 12.3 22.9 14.4.3.7-.7 2.3-2.1 3.4-4.7 3.7-5.7 5.1-5.4 7.8.3 3.4 1.6 5.1 3.9 5.1 1 0 6.6-1.8 12.5-4l10.5-4 9.5 4.5c5.2 2.4 9.4 4.6 9.4 4.8 0 2-2.1 4.4-8.3 9.4-7.3 5.8-16.2 14.6-22 21.6-1.8 2.2-4.2 5.1-5.5 6.5-4 4.9-4.1 9.6-.2 12 2.4 1.5 3.6.4 14-11.8 13-15.2 22.2-23.3 29.6-26.2 5.1-2.1 7.9-1.4 17.4 3.9 8 4.4 13.7 9.4 16.1 14 .8 1.6 1.6 3 1.9 3.3.3.3 2.5 3.4 5 7 5.9 8.7 13.1 16.8 18.5 21 4.1 3.2 16.1 9.8 23.3 12.8 2.9 1.3 11 5 18 8.4 7 3.4 13.6 6.3 14.6 6.5 1.1.2 6.5 1.9 12 3.8 5.6 2 11.5 4 13.1 4.4 1.7.5 6 1.8 9.7 2.9 8.7 2.6 23 5 33.8 5.6 16.6 1 21.4 2.4 22.7 6.4.7 2.1 1 20.7.3 20.7 0 0-.3 2.1-.5 4.7-.7 9.1-2.4 17.1-5 23.9-.8 2-1.2 3.8-1 4.1.9.9-12.3 24.9-18.3 33.3-3.8 5.3-4.1 6-2.8 7.9 3.6 5.6 9.6 1.3 19.6-14.2 4.3-6.6 5.6-8 6.6-7 2.4 2.5 9.8 21.4 11.6 29.8 2.3 10.3 3.1 27.5 1.6 35-2.9 14.9-8.6 31-10.9 31-.5 0-.9.6-.9 1.4 0 2.1-10.5 11-18.6 15.6-16.9 9.7-29.7 12.5-43.2 9.4-5.1-1.1-13.2-5.8-13.2-7.6 0-.4 3.5-4.3 7.8-8.6 14.9-14.6 21.9-25.1 20.1-30.1-.9-2.2-1.3-1.9-9.7 6.6-4.8 4.9-10.1 9.8-11.7 10.8-1.7 1.1-4.4 3.2-6.1 4.8-4.8 4.5-18.3 14.4-22.3 16.4-2 1-3.8 2.1-4.1 2.4-.8 1-13 7-17.3 8.5-4.9 1.7-5.8 1.1-9.7-6.5-6.1-12-18.8-29.9-28.7-40.4-5.2-5.4-8.2-5.9-9.7-1.6-1 2.9.5 5.2 17 27.4 12.4 16.7 16.2 26.5 18 46.6l.6 6.7-4.3 5.8c-6.1 8.2-7.6 9.3-17.9 13.8-10.8 4.6-20.1 4-41.5-2.5-15.8-4.9-18.2-5.7-23.4-8.4-9.6-4.8-29.6-22.2-37.2-32.3-12.1-16-15.1-18.2-16.4-12.4-.6 3.2 2.8 13.8 7.6 23.4l2.9 5.7-4.4.6c-4.2.7-12.6.2-17.1-.8-23.7-5.7-35.6-9.6-53.1-17.7-6.5-3-17.1-9.6-19.4-12-.3-.3-3.7-2.7-7.6-5.3-3.9-2.6-8.5-6.1-10.3-7.7l-3.2-3 1.8-3.1c1-1.7 5.1-6.3 9.1-10.3 4-3.9 11.7-12.7 17.1-19.6 5.4-6.9 12-14.8 14.7-17.5 6.9-7.1 20.3-19.3 23.9-21.8 1.7-1.2 3.9-2.9 4.9-3.9 1.1-1 2.3-1.8 2.7-1.8 2.7 0 18.4-18.3 22-25.7 3.9-8.1 3.1-20.1-2.2-31-2.7-5.6-6-9.1-11.4-11.9-3.6-2-5.6-2.6-12.2-3.8-3.6-.7-13.9 2.2-21.6 6-8.4 4.3-24.3 14.6-33.1 21.6-8.5 6.8-24.1 22.2-28.8 28.5-3.6 4.9-6 6.4-7.1 4.5-.3-.4-.8-2.5-1.1-4.7-.3-2.2-.8-5.1-1.1-6.5-1-4.8-1.5-7.5-2-10.5-.3-1.7-1-5.3-1.5-8-4.2-20.8-5.2-25.2-7.9-35-6.1-21.9-13-34.4-16.2-29.4-1.3 2-.2 6.7 4.6 21.4 3.9 11.8 4.7 14.7 6.1 22.5.6 3.3 2.2 11.7 2.9 15.5.4 1.6.8 3.9 1 5 .2 1.1 2 10.1 4.1 20 2 9.9 3.9 19.2 4.1 20.7.5 2.5-.4 4.2-6.9 13.3-5.8 8-26.5 35.4-27.7 36.6-.9.9-3.2 3.6-5 5.9-1.9 2.3-4 4.8-4.5 5.4-.6.6-2.9 3.1-5.1 5.6-4.5 5.1-20.8 19-28.1 24.1-2.7 1.8-5.4 3.8-6.1 4.4-.6.7-2.5 1.8-4.2 2.5-1.7.7-3.1 1.6-3.1 2.1s-.5.9-1.2.9-3.8 1.8-6.9 4c-3.2 2.2-6.1 4-6.7 4-.5 0-2.3.7-4 1.6-4.2 2-38.8 11.8-46.1 13-1.8.3-4.3.8-5.5 1-5.7 1.1-18.9 1.8-36.1 1.8-17.6 0-24.4-.4-33.5-2.1-1.9-.3-4.6-.7-6-.9-1.4-.1-2.5-.3-2.5-.4 0-.1-1.8-.3-4-.4-2.2-.2-5-.6-6.2-1-1.2-.4-3.1-.9-4.3-1.1-4.6-.9-13.6-5.8-16.6-9-5.1-5.6-6-8.7-4-14.7 2.6-8.1 1.8-12.6-2.2-11.4-1.9.6-6 5.6-4.6 5.6.4 0 .2.6-.4 1.2-1.4 1.7-2.7 10.3-2.3 15.2.8 11.7 13.8 21.3 32.6 24.2 6.4.9 15.8 2.2 22.4 2.9 3 .4 6.1.8 7 1 10.2 1.9 42.1 2.6 51.6 1.1 2.8-.4 6.1-.9 7.5-1.1 4.4-.6 10.4-1.6 12.3-2.1 1-.3 3.5-.8 5.5-1 2-.3 6.6-1.2 10.2-2 3.6-.9 7.6-1.8 9-2 15.1-2.9 37.9-14.3 51.5-26 3.3-2.8 7.1-6 8.4-7 10.3-8.3 17.4-15.2 26.4-25.8 8.1-9.5 11.2-13.1 16.4-18.6 2.8-3 9.6-11.4 15-18.5 10.4-13.8 16.5-21.7 17.3-22.5.3-.3 4.3-5.2 9-11s9.4-11.6 10.5-12.9c4.6-5.5 19.2-19.5 26.1-25.1 13.7-11 21.6-15.7 32.8-19.5 6.7-2.3 9-2.4 15.3-1 4 .9 9.1 6.4 11.3 12.1 3 8 2.6 11.9-1.7 19.2-3.7 6.3-7.2 9.9-20.8 21.7-3.8 3.3-12.1 11.2-18.5 17.6-10.4 10.4-16 16.4-29.1 31.4-2.4 2.7-4.8 5.5-5.4 6.1-.5.6-1.9 2.2-3 3.6-1.1 1.3-4.1 4.8-6.6 7.8s-7.2 9.1-10.5 13.5c-3.2 4.4-6.1 8.2-6.4 8.5-.3.3-1.5 1.7-2.7 3.2-2 2.7-13.1 15.3-18.4 21-1.5 1.6-5.1 5.6-8 9-8.9 10.3-20.7 21.5-26.7 25.5-3.2 2-7.5 5.4-9.7 7.4-4.6 4.2-21.1 15.9-22.5 15.9-.5 0-1.5.6-2.2 1.3-1.9 1.8-14.7 9.2-18.8 10.7-1.9.7-5.3 2.4-7.5 3.6-4.1 2.3-23.7 10.3-26.7 10.9-.9.2-2.7.9-4 1.6-1.3.7-2.3 1.1-2.3.9 0-.1-2.5.4-5.5 1.3-7.4 2-19.7 4.8-24 5.2-1.9.3-6.4.8-10 1.2-8.3.9-33.6 1-42 0-5.6-.6-10.8-1.4-19.5-3.1-2.3-.5-21.3-5.5-23.5-6.2-.8-.3-1.6-.5-1.8-.5-.1.1-1.8-.5-3.7-1.3-1.9-.8-3.5-1.3-3.5-1.1 0 .6-12.8-4.2-19.8-7.5-3.5-1.7-6.5-3-6.7-3-1.3 0-13.8-8-18.1-11.6-4.6-3.9-16.4-17.3-16.4-18.7 0-.3-1.5-2.9-3.4-5.7-3-4.6-4.6-8-8.2-17.5-.9-2.5-1.1-3.2-1.8-7.3-.4-1.8-1.3-6.4-2.1-10.3-.8-3.8-1.8-9.6-2.1-12.7-.4-3.1-.8-6.8-1-8.2-.1-1.4-.3-2.5-.4-2.5-.5 0-1.1-13.1-1.2-24-.1-10.4.8-27.8 1.7-32.5.2-.8.6-4.7.9-8.5.4-3.9.9-7.7 1.1-8.5.2-.8.6-4.4 1-8 .3-3.6.7-7.4.9-8.5.2-1.1.7-4.5 1.1-7.5.8-6.2 1.2-8.2 2.2-12.5.3-1.7.7-3.7.8-4.5.2-.8.7-3.5 1.3-6 .6-2.5 1.4-6.1 1.7-8 .3-1.9 1.1-5.3 1.7-7.5.5-2.2 1.2-5.1 1.4-6.5.9-5.3 1.7-8.5 2.3-9.5.3-.6.6-1.2.6-1.5.2-1.4 4.9-14.6 5.5-15.5.5-.6 1.5-3.3 2.3-6.1.8-2.8 4.2-10.2 7.4-16.5 3.3-6.3 7.7-15.2 9.8-19.9 5.7-12.9 21.5-39.6 27-45.6 1.7-2 3.8-4.7 9.9-12.9 18.3-24.6 33.4-40.2 55.3-56.8 3.4-2.6 6.8-5.3 7.5-6 1.5-1.4 15.6-12.3 19.7-15.2 14.2-10 28.7-19.9 34.1-23.1 3.6-2.1 6.8-4.3 7.2-4.9.4-.5.8-.7.8-.3 0 .4 1.7-.4 3.8-1.8 4.6-3.2 16.2-8.8 22.2-10.8 4.6-1.5 30.4-8.1 35-8.9 3.3-.6 38.6 0 43 .7zm259 87.5c1.7 2.4 2.7 4.7 2.4 5.2-.3.5-3.1 1.6-6.2 2.5-3.1.9-6.4 2.1-7.3 2.7-1.2.8-2.9.1-7.1-2.6-3-2-6.3-4.6-7.4-5.8-1.8-2-1.8-2.1 0-3.4 1-.8 4.4-1.7 7.5-2 3.1-.3 6.3-.7 7.1-.8 6-1 8.1-.1 11 4.2zM396.6 745.6c1.4 2 1.5 2.9.5 4.7-4.1 7.6-32.3 31.8-43.8 37.6-6.2 3.1-7.6 3.3-5 .7.6-.7 4.4-4.8 8.2-9.1 3.9-4.3 8.4-9.2 10-10.9 1.7-1.7 5.9-6.5 9.5-10.6 13.3-15.3 15.1-17 17.1-15.9 1.1.5 2.6 2.1 3.5 3.5z"/><path d="M598 177.2c0 2.6.5 3.5 7.4 13.9 9.6 14.4 26.4 49.1 29.1 60.2 1 4-1.6 3.5-5.6-1.1-5.6-6.3-7.7-8.9-9.6-11.9-2.8-4.3-13-14.8-17.2-17.7-5.3-3.7-8-4.1-9-1.3-1.1 2.7-.8 3.1 5.4 9.9 9.2 10.1 26 31.9 28.9 37.6 2.2 4.3.7 4.9-6.6 2.9-8.8-2.5-12.6-2.6-19.9-.6-10.7 3-13.3 5.4-10.9 9.9 1.1 2 1.7 2.1 9.8 1.6 4.8-.4 9.8-.8 11.2-1 1.4-.1 5.4.8 9 2.2 9.6 3.6 17.3 6 21.3 6.6 2.8.4 3.9.1 6-1.9 2.3-2.3 2.4-3.1 2.1-10.3-.2-7.2-3.2-21-5.4-25.7-.5-1.1-2.1-5.1-3.4-8.8-5.3-14.4-20.7-44.8-25.9-51.2-6.3-7.8-14-15.5-15.4-15.5-.7 0-1.3 1-1.3 2.2zM852.5 358.7c-7.3 2.5-19.9 13.5-21 18.2-.8 3.7 1 8.1 3.2 8.1 1 0 3.6-1.7 5.8-3.7 12.6-11.3 19.3-13.2 30.8-8.8 4.6 1.7 4.8 1.7 6.7 0 1.1-1 2-2.5 2-3.3 0-2.8-4.1-8-7.7-9.7-4.5-2.2-14.8-2.6-19.8-.8zM705 375.7c-8.3 2.5-21.5 11.9-23.6 16.8-1.8 4.4-1.8 6.9.1 8.5 2 1.7 4.9.5 10.3-4.5 2.6-2.5 5.3-4.5 6-4.5.6 0 1.2-.4 1.2-.8 0-1.7 6.5-3.1 13-2.9 9.1.4 11.6 2.4 18.2 14.9 5.1 9.6 11.7 2.8 8.1-8.2-2.8-8.3-8.5-13.6-18.7-17.4-4.8-1.9-11.7-2.7-14.6-1.9zM814.5 420.7c-5.3 1.8-9.8 2.5-18.5 2.9-10 .4-14.8.8-17.1 1.3-1.4.3-2.6 5-2.4 9.7.3 7.1 4.5 14.9 11.6 21.8 7.7 7.5 7.6 7.7-3.8 19.2-6.8 6.8-14.4 11.1-21 11.8-5.1.5-6.7-1-8.9-8.5-4.1-14.2-5.9-16.7-11.3-14.8-3.6 1.3-3.9 2.1-3.6 9.5.8 21.8 14.3 32 32 24.4 7.1-3.1 14-8.3 22.8-17.3 8.5-8.7 8-8.7 13.8-2.3 2.2 2.5 3.5 3 8.8 3.4 4.1.3 6.1.1 6.1-.7 0-.6.9-1.1 2-1.1s2-.5 2-1c0-.6.5-1 1-1 1.6 0 12.8-12.2 14.2-15.4 1-2.6.9-3.1-1.2-4.8-2.1-1.7-2.4-1.8-4.9-.2-1.4.9-3.4 2.5-4.3 3.5-3.1 3.1-10.2 7.6-13 8.1-1.9.4-3.3-.1-4.4-1.3-1.6-1.8-1.5-2.2 2.2-7.5 2.1-3.1 4.7-6.8 5.6-8.3 2.9-4.3 5.9-14.6 6.4-21.8.4-5.5.2-7.2-1.3-9.1-2.6-3.2-5-3.3-12.8-.5zm6.5 14.4c0 1.2-3 6.8-4.6 8.5-.6.7-2.1 2.5-3.5 4.1-6.6 7.8-10.7 8.2-17.1 1.5-9.1-9.4-8.9-12.2.9-12.3 3.7 0 9.3-.7 12.3-1.4 7.1-1.6 12-1.8 12-.4z"/></svg>